<svg width="400" height="400" viewBox="0 0 400 400" fill="none" xmlns="http://www.w3.org/2000/svg">
<circle opacity="0.1" cx="200" cy="200" r="200" fill="#7DDE7A"/>
<circle opacity="0.3" cx="200" cy="200" r="100" fill="#7DDE7A"/>
<g clip-path="url(#clip0_851_21499)">
<path d="M200 250C186.739 250 174.021 244.732 164.645 235.355C155.268 225.979 150 213.261 150 200C150 186.739 155.268 174.021 164.645 164.645C174.021 155.268 186.739 150 200 150C213.261 150 225.979 155.268 235.355 164.645C244.732 174.021 250 186.739 250 200C250 213.261 244.732 225.979 235.355 235.355C225.979 244.732 213.261 250 200 250ZM190 225L235 182.5L227.5 175L190 210L172.5 192.5L165 200L190 225Z" fill="#32AC2E"/>
</g>
<defs>
<clipPath id="clip0_851_21499">
<rect width="100" height="100" fill="white" transform="translate(150 150)"/>
</clipPath>
</defs>
</svg>
